<?xml version="1.0" standalone="no"?>
<!DOCTYPE svg PUBLIC "-//W3C//DTD SVG 20010904//EN"
 "http://www.w3.org/TR/2001/REC-SVG-20010904/DTD/svg10.dtd">
<svg version="1.0" xmlns="http://www.w3.org/2000/svg"
 width="600.000000pt" height="600.000000pt" viewBox="0 0 600.000000 600.000000"
 preserveAspectRatio="xMidYMid meet">
<g transform="translate(0.000000,600.000000) scale(0.100000,-0.100000)"
fill="#000000" stroke="none">
<path d="M3944 4665 c-8 -20 -70 -49 -85 -39 -8 4 -9 3 -5 -4 4 -7 3 -12 -3
-12 -5 0 -16 -6 -23 -12 -18 -17 -139 -74 -151 -70 -4 1 -6 -2 -2 -8 3 -5 -1
-10 -9 -10 -9 0 -16 -4 -16 -10 0 -5 -6 -10 -12 -10 -7 0 -26 -7 -41 -15 -22
-11 -34 -12 -50 -4 -20 9 -21 9 -4 -4 16 -13 16 -15 1 -21 -9 -3 -21 -3 -26 1
-6 3 -8 1 -5 -4 6 -10 -49 -43 -71 -43 -5 0 -12 -7 -16 -15 -3 -8 -11 -15 -18
-15 -9 0 -8 3 2 10 8 5 11 10 5 10 -5 0 -23 -11 -39 -25 -28 -24 -40 -29 -60
-26 -4 1 -15 -6 -23 -16 -9 -11 -12 -12 -8 -3 6 13 5 13 -7 0 -7 -8 -23 -20
-34 -27 -19 -10 -23 -9 -33 10 -10 20 -10 20 -5 -5 5 -21 2 -28 -9 -28 -8 0
-30 -10 -48 -23 -19 -13 -41 -21 -48 -19 -8 3 -11 0 -7 -6 7 -12 -22 -25 -36
-15 -7 3 -8 1 -4 -5 4 -7 2 -12 -4 -12 -7 0 -25 -9 -41 -21 -16 -11 -29 -17
-29 -14 0 4 -16 -2 -36 -14 -36 -22 -60 -29 -34 -10 13 9 13 10 0 6 -8 -2 -15
-10 -15 -17 0 -7 -22 -21 -48 -29 -27 -9 -45 -20 -40 -25 4 -5 1 -7 -9 -3 -9
3 -18 2 -20 -2 -6 -16 -119 -72 -131 -65 -6 4 -9 4 -5 0 4 -5 -5 -19 -20 -32
l-27 -24 30 11 c27 9 221 108 580 294 66 34 201 104 300 155 99 51 246 128
328 172 81 43 150 78 153 78 4 0 2 -6 -4 -12 -11 -14 -38 -64 -170 -318 -209
-403 -352 -685 -358 -702 -8 -27 -19 -22 -21 10 -1 15 -11 99 -23 187 -11 88
-24 184 -27 213 -4 34 -10 52 -19 52 -8 0 -71 -11 -141 -24 -71 -14 -204 -39
-298 -56 -195 -35 -303 -59 -309 -69 -2 -3 20 -6 49 -6 29 0 51 3 49 7 -5 8
23 12 74 11 12 0 22 4 22 9 0 6 18 8 39 6 22 -2 37 0 35 4 -3 5 7 9 23 9 36 2
59 6 108 18 22 5 58 13 80 16 71 10 74 11 81 18 12 12 26 8 18 -5 -6 -10 -4
-10 8 0 9 7 32 14 52 16 20 2 39 6 43 10 3 3 18 6 33 6 23 0 27 -4 25 -27 -1
-16 2 -35 6 -44 4 -8 10 -40 13 -70 3 -30 8 -74 12 -99 10 -73 11 -83 13 -130
1 -31 9 -54 24 -74 l24 -29 30 44 c17 24 32 49 33 54 4 17 19 49 39 80 10 17
16 33 14 38 -2 4 0 7 6 7 5 0 12 -6 15 -12 3 -7 3 -2 0 11 -5 17 -3 21 6 16 9
-5 11 -4 6 3 -7 11 44 130 70 162 6 8 17 32 24 53 6 20 16 37 21 37 5 0 8 6 7
13 -2 6 2 11 9 10 7 -2 10 4 7 12 -4 8 -1 15 6 15 7 0 10 6 7 14 -6 15 16 40
26 30 3 -3 3 4 0 17 -4 16 -3 20 6 15 8 -5 11 -3 10 5 -1 8 15 48 35 89 56
111 62 121 70 112 4 -4 7 -2 6 3 -4 15 23 75 33 75 4 0 5 5 2 10 -3 6 -1 10 5
10 7 0 10 6 7 13 -4 13 29 83 44 93 14 8 11 51 -5 57 -7 3 -19 0 -26 -6 -10
-9 -12 -8 -7 6 8 21 -1 23 -9 2z"/>
<path d="M3878 4553 c-18 -21 -31 -43 -25 -43 2 0 13 14 25 30 25 33 24 41 0
13z"/>
<path d="M2507 4543 c3 -7 -1 -13 -8 -13 -7 0 -9 -3 -6 -7 4 -3 16 3 27 15 19
20 19 21 1 19 -11 -1 -17 -7 -14 -14z"/>
<path d="M3956 4533 c-6 -14 -5 -15 5 -6 7 7 10 15 7 18 -3 3 -9 -2 -12 -12z"/>
<path d="M2532 4527 c-6 -7 -13 -24 -16 -37 -11 -55 -35 -104 -52 -111 -18 -7
-18 -8 1 -9 l20 -1 -20 -8 c-11 -5 -21 -4 -23 0 -2 5 -8 9 -13 9 -6 0 -8 -4
-4 -9 3 -5 -12 -15 -32 -21 -38 -13 -73 -37 -73 -51 0 -7 52 -28 75 -30 6 0
15 -5 22 -11 7 -5 16 -7 20 -5 16 10 44 -21 46 -51 1 -16 5 -28 9 -26 4 3 12
-13 18 -35 6 -22 14 -42 18 -45 22 -14 82 86 82 138 0 10 5 16 13 13 6 -2 25
2 40 10 16 8 35 12 43 9 8 -3 14 -1 14 5 0 6 5 7 10 4 6 -3 10 -2 10 4 0 5 9
13 20 16 20 6 20 7 -2 24 -26 20 -59 35 -71 32 -17 -3 -76 23 -70 31 3 5 -3
16 -13 24 -11 9 -13 13 -7 9 9 -4 11 -1 7 9 -3 9 -11 16 -17 16 -6 0 -8 3 -4
6 11 11 -15 63 -34 69 -16 5 -18 10 -8 21 6 8 9 14 6 14 -2 0 -9 -6 -15 -13z
m145 -209 c46 -12 80 -23 76 -24 -4 -1 -42 -10 -84 -19 l-76 -18 -23 -76 c-13
-42 -27 -80 -33 -86 -7 -7 -8 -6 -3 2 4 7 -4 46 -16 86 l-23 74 -75 18 c-41 9
-79 18 -84 19 -5 1 22 10 60 20 38 11 76 22 85 27 8 4 26 42 39 85 l24 77 24
-81 25 -80 84 -24z"/>
<path d="M3795 4466 c-23 -25 -26 -40 -4 -19 12 12 21 24 18 27 -2 2 -9 -1
-14 -8z"/>
<path d="M3784 4389 c-8 -14 14 -19 25 -6 8 10 7 14 -5 14 -8 0 -17 -4 -20 -8z"/>
<path d="M3786 4348 c3 -5 10 -6 15 -3 13 9 11 12 -6 12 -8 0 -12 -4 -9 -9z"/>
<path d="M3766 4327 c3 -10 9 -15 12 -12 3 3 0 11 -7 18 -10 9 -11 8 -5 -6z"/>
<path d="M3595 4279 c-4 -6 -5 -12 -2 -15 2 -3 7 2 10 11 7 17 1 20 -8 4z"/>
<path d="M3540 4230 c-13 -11 -20 -20 -16 -20 4 0 19 9 33 20 14 11 21 20 16
20 -6 0 -20 -9 -33 -20z"/>
<path d="M3420 4114 c-13 -13 -20 -24 -14 -24 12 0 50 38 43 44 -2 2 -15 -7
-29 -20z"/>
<path d="M3705 4050 c-3 -5 -1 -10 4 -10 6 0 11 5 11 10 0 6 -2 10 -4 10 -3 0
-8 -4 -11 -10z"/>
<path d="M3725 4029 c-4 -6 -5 -12 -2 -15 2 -3 7 2 10 11 7 17 1 20 -8 4z"/>
<path d="M3746 4013 c-6 -14 -5 -15 5 -6 7 7 10 15 7 18 -3 3 -9 -2 -12 -12z"/>
<path d="M3265 4000 c-22 -4 -43 -6 -47 -4 -4 3 -12 -4 -17 -15 -6 -10 -23
-22 -38 -26 -15 -3 -50 -17 -78 -29 -27 -13 -61 -27 -75 -31 -14 -4 -51 -21
-82 -36 -32 -16 -64 -29 -73 -29 -8 0 -32 -9 -52 -20 -20 -10 -41 -16 -47 -13
-6 3 -8 2 -3 -2 8 -9 -55 -37 -90 -39 -11 0 -19 -4 -17 -7 2 -3 -15 -12 -36
-19 -22 -7 -40 -17 -40 -21 0 -4 -8 -6 -17 -5 -10 2 -21 -1 -24 -6 -6 -10 -30
-16 -66 -17 -16 -1 -21 -5 -16 -17 5 -13 2 -15 -17 -9 -14 4 -20 3 -16 -3 7
-12 -40 -25 -56 -16 -6 4 -8 3 -4 -4 3 -6 -6 -13 -23 -17 -16 -3 -35 -13 -42
-21 -9 -11 -15 -12 -25 -3 -10 8 -14 8 -14 0 0 -6 -11 -13 -25 -17 -14 -3 -25
-10 -25 -15 0 -6 -9 -5 -20 1 -16 9 -18 8 -14 -5 4 -10 0 -15 -12 -15 -11 0
-34 -9 -52 -20 -19 -12 -30 -15 -26 -8 4 7 -2 5 -13 -4 -11 -10 -25 -18 -31
-18 -7 0 -12 -5 -12 -11 0 -6 -7 -8 -16 -5 -9 3 -12 2 -9 -5 4 -5 16 -7 28 -3
23 7 330 131 407 164 48 21 476 196 700 287 74 30 139 59 145 64 24 23 24 23
7 -501 -4 -113 -4 -225 -1 -250 5 -37 7 -28 10 45 3 100 4 109 15 315 9 162
11 289 5 368 -3 28 -5 51 -5 51 -1 -1 -19 -5 -41 -9z"/>
<path d="M3125 3991 c-3 -6 5 -15 17 -21 21 -10 21 -10 6 3 -10 8 -15 17 -11
20 3 4 4 7 0 7 -3 0 -8 -4 -12 -9z"/>
<path d="M3167 3979 c7 -7 15 -10 18 -7 3 3 -2 9 -12 12 -14 6 -15 5 -6 -5z"/>
<path d="M3109 3789 c-90 -94 -165 -175 -167 -180 -2 -4 6 -7 17 -6 11 0 17 5
15 9 -7 12 24 40 36 33 5 -3 7 0 5 7 -6 14 92 115 107 111 4 -2 7 1 6 6 -3 11
90 111 103 111 5 0 9 5 9 12 0 6 10 22 22 35 12 13 19 25 17 28 -3 2 -79 -72
-170 -166z"/>
<path d="M3108 3853 c7 -3 16 -2 19 1 4 3 -2 6 -13 5 -11 0 -14 -3 -6 -6z"/>
<path d="M2680 3559 c-129 -21 -331 -54 -447 -73 -273 -45 -317 -64 -93 -41
19 2 60 9 90 15 30 7 70 13 88 13 17 1 32 5 32 8 0 7 19 10 175 28 55 7 110
17 122 23 11 6 25 8 30 5 4 -3 31 -1 58 4 117 21 155 25 155 17 0 -4 5 -8 11
-8 5 0 7 5 4 10 -3 6 -2 10 3 10 4 0 28 -23 53 -51 24 -29 55 -63 67 -76 14
-13 21 -30 18 -39 -3 -9 -1 -12 4 -9 13 8 101 -86 95 -102 -5 -15 11 -17 20
-3 5 9 -71 109 -110 145 -6 6 -21 24 -34 40 -12 17 -38 47 -57 67 -19 20 -34
42 -34 48 0 5 -3 10 -7 9 -5 0 -114 -18 -243 -40z"/>
<path d="M3302 3305 c0 -16 2 -22 5 -12 2 9 2 23 0 30 -3 6 -5 -1 -5 -18z"/>
<path d="M3170 3275 c0 -8 11 -22 25 -31 13 -9 27 -24 30 -34 3 -10 14 -20 25
-23 15 -4 10 8 -23 49 -43 55 -57 65 -57 39z"/>
<path d="M1240 3043 c-19 -3 -41 -10 -49 -16 -12 -10 -13 -9 -6 3 6 12 5 13
-6 3 -7 -7 -17 -13 -22 -13 -4 0 -5 6 -1 13 4 7 3 9 -2 4 -5 -5 -9 -14 -9 -20
-1 -7 -6 -11 -13 -9 -7 1 -11 -1 -10 -5 2 -5 -10 -25 -27 -47 -19 -25 -29 -50
-29 -72 0 -19 -4 -34 -8 -34 -4 0 -8 5 -8 12 0 6 -3 9 -6 5 -4 -3 3 -21 15
-40 26 -42 81 -112 81 -103 0 4 10 -3 22 -14 12 -11 28 -18 36 -15 7 2 10 1 7
-5 -3 -5 3 -8 12 -7 20 1 73 -31 73 -44 0 -5 -8 -9 -17 -10 -17 0 -17 -1 0 -8
22 -8 22 -24 -1 -32 -36 -12 -132 5 -132 23 0 5 -6 8 -12 5 -7 -2 -19 3 -26
12 -11 14 -11 14 -5 -3 4 -13 3 -17 -5 -12 -7 4 -10 2 -7 -7 3 -7 -5 -25 -18
-38 -19 -21 -21 -28 -9 -38 11 -11 10 -15 -5 -28 -17 -13 -17 -13 4 -4 16 8
22 7 27 -4 3 -8 9 -14 13 -13 4 1 25 -6 45 -15 48 -20 173 -15 200 10 10 9 18
13 18 9 0 -16 70 71 71 89 1 11 3 25 4 30 2 6 4 21 5 35 2 14 6 3 10 -25 5
-39 4 -52 -8 -59 -11 -7 -8 -14 16 -36 83 -75 142 -89 204 -46 20 13 38 22 41
20 2 -2 4 3 4 11 0 8 -4 15 -9 15 -4 0 -8 7 -8 16 0 14 2 14 15 0 8 -8 15 -20
15 -26 0 -6 4 -9 8 -6 5 3 16 -3 24 -13 9 -11 40 -24 69 -30 64 -14 143 0 183
33 24 19 25 24 16 59 -6 20 -15 37 -21 37 -6 0 -8 4 -4 9 3 5 0 13 -6 17 -8 4
-9 3 -5 -4 4 -7 2 -12 -3 -12 -22 0 -26 -2 -45 -18 -15 -13 -17 -13 -11 -2 8
13 7 13 -8 1 -15 -11 -25 -12 -58 -2 -34 10 -38 15 -28 27 10 12 9 13 -5 8 -9
-3 -16 -2 -16 3 0 4 45 8 100 7 76 0 100 3 104 13 13 33 24 -2 23 -67 -1 -39
2 -72 8 -74 5 -3 3 -5 -5 -5 -9 -1 -5 -6 10 -14 46 -24 133 -2 122 31 -2 6 0
12 5 12 4 0 7 30 6 67 -2 38 -4 150 -5 251 -3 149 -6 185 -18 192 -20 13 -116
10 -118 -4 -1 -6 -3 -73 -4 -149 l-3 -138 -20 45 c-11 25 -30 50 -42 57 -12 7
-20 15 -18 19 3 5 -2 11 -11 14 -10 4 -13 2 -8 -7 5 -9 4 -9 -7 1 -19 18 -134
16 -153 -3 -8 -8 -19 -15 -25 -15 -6 0 -11 -5 -11 -10 0 -6 -11 -15 -24 -21
-16 -8 -23 -17 -19 -28 4 -13 3 -14 -5 -1 -8 10 -7 18 1 28 9 11 7 17 -7 27
-10 8 -15 18 -12 23 3 5 -5 9 -17 9 -62 -1 -66 1 -63 36 2 17 -3 42 -11 53
-12 19 -18 21 -56 12 -41 -9 -82 -40 -69 -52 3 -4 0 -11 -8 -16 -11 -7 -12
-10 -2 -10 7 0 10 -5 7 -11 -4 -6 -13 -8 -21 -5 -7 3 -16 0 -20 -6 -4 -7 -3
-8 4 -4 7 4 12 2 12 -3 0 -6 -5 -11 -11 -11 -5 0 -7 -4 -4 -10 3 -5 2 -10 -4
-10 -6 0 -8 -7 -5 -15 4 -8 1 -22 -6 -30 -10 -12 -6 -18 24 -36 31 -18 35 -25
30 -47 -11 -45 -19 -49 -24 -12 -3 22 -10 35 -20 35 -14 0 -45 32 -45 47 0 3
-4 10 -9 15 -6 5 -6 2 -1 -6 6 -11 4 -13 -11 -7 -10 5 -31 13 -46 18 -16 5
-25 14 -22 19 3 5 2 9 -3 8 -20 -4 -53 2 -52 9 1 4 0 9 -1 12 -8 21 -6 41 3
47 17 11 60 15 54 6 -3 -4 16 -8 41 -7 26 0 55 -3 65 -8 12 -6 17 -5 15 4 -2
8 5 12 17 11 11 -1 14 0 8 3 -7 3 -13 13 -13 21 0 11 3 13 13 5 9 -8 12 -4 14
15 1 19 -1 22 -8 12 -7 -11 -9 -11 -9 4 0 9 5 17 10 17 6 0 2 9 -9 21 -11 12
-24 18 -30 15 -5 -4 -13 -1 -17 5 -5 8 -3 9 7 4 8 -5 11 -5 7 0 -4 4 -24 8
-45 10 -21 1 -45 4 -53 7 -8 3 -31 3 -50 1z m130 -45 c29 -10 31 -14 26 -42
-9 -44 -16 -47 -66 -29 -87 31 -164 -9 -143 -74 7 -22 28 -37 93 -69 46 -22
94 -53 108 -69 21 -25 24 -36 20 -91 -5 -74 -26 -104 -94 -130 -51 -19 -140
-16 -196 9 -37 15 -37 15 -25 54 6 21 11 39 12 40 1 2 19 -6 40 -17 80 -41
175 -18 175 43 0 36 -14 49 -101 91 -59 29 -90 51 -106 75 -55 82 -4 195 101
222 36 9 111 3 156 -13z m782 -243 l3 -265 -47 0 -47 0 0 265 0 265 44 0 44 0
3 -265z m-582 150 l0 -55 45 0 c45 0 45 0 45 -35 0 -35 0 -35 -45 -35 l-45 0
0 -104 c0 -116 8 -133 59 -123 27 6 30 3 36 -24 4 -17 4 -33 1 -37 -4 -3 -33
-8 -64 -10 -51 -4 -62 -1 -88 21 -29 25 -29 26 -32 151 -4 126 -4 126 -28 126
-21 0 -24 5 -24 35 0 31 3 35 25 35 23 0 25 4 25 45 0 42 2 45 33 54 56 16 57
15 57 -44z m378 -72 c38 -28 62 -80 62 -135 l0 -48 -119 0 -120 0 11 -30 c22
-64 96 -88 173 -56 33 14 34 14 44 -16 6 -17 11 -32 11 -34 0 -1 -21 -9 -47
-18 -149 -51 -273 27 -273 170 0 29 5 65 11 81 14 37 56 82 94 99 40 19 119
12 153 -13z m-278 -113 c-8 -20 -10 -50 -6 -86 l6 -55 -37 3 -38 3 0 75 c0 41
4 80 10 86 11 12 46 6 58 -10 5 -6 5 0 2 14 -6 20 -5 23 5 13 10 -10 10 -18 0
-43z m-200 -174 c0 -3 -4 -8 -10 -11 -5 -3 -10 -1 -10 4 0 6 5 11 10 11 6 0
10 -2 10 -4z"/>
<path d="M1817 2779 c-9 -5 -24 -23 -32 -39 l-15 -28 80 -4 c71 -3 80 -1 80
15 0 10 -7 29 -16 42 -18 27 -63 33 -97 14z m60 -38 c-1 -15 -5 -17 -18 -10
-10 5 -26 6 -36 3 -15 -5 -15 -4 -3 5 8 6 11 11 5 12 -5 0 1 4 15 8 31 10 39
6 37 -18z"/>
<path d="M1740 2581 c0 -6 4 -13 10 -16 6 -3 7 1 4 9 -7 18 -14 21 -14 7z"/>
<path d="M1400 3036 c0 -2 7 -7 16 -10 8 -3 12 -2 9 4 -6 10 -25 14 -25 6z"/>
<path d="M2216 3023 c-3 -10 -5 -128 -5 -261 0 -134 -2 -246 -5 -249 -3 -3 4
-15 15 -26 22 -24 69 -28 117 -8 27 11 30 16 21 33 -9 17 -8 18 11 6 11 -7 18
-19 15 -26 -3 -7 -1 -11 4 -7 5 3 25 -4 45 -16 29 -17 44 -19 78 -14 24 4 51
13 61 20 15 10 24 9 55 -7 40 -20 78 -17 97 9 10 14 14 14 36 1 13 -8 38 -14
54 -13 61 5 61 6 63 132 1 100 4 118 21 134 10 10 21 16 24 13 2 -3 23 3 46
12 33 13 39 19 30 30 -6 8 -8 21 -5 30 4 9 -1 27 -9 40 -13 20 -23 24 -60 22
-24 0 -42 -5 -39 -10 3 -4 1 -8 -5 -8 -5 0 -12 4 -15 8 -3 5 -26 8 -51 7 -77
-4 -80 -12 -77 -181 l3 -145 -22 22 c-19 19 -21 26 -11 51 5 15 6 26 1 22 -14
-8 -11 70 4 85 10 11 10 13 0 7 -8 -4 -13 -1 -13 8 0 9 5 16 11 16 6 0 3 7 -5
16 -9 8 -16 22 -16 30 0 8 -5 14 -11 14 -5 0 -7 5 -4 10 4 6 1 9 -7 8 -7 -2
-12 3 -10 10 1 6 -7 12 -17 12 -11 0 -22 4 -25 9 -3 5 -42 9 -86 9 -45 0 -78
-4 -75 -9 4 -5 0 -6 -8 -4 -7 3 -24 -4 -37 -15 -13 -11 -30 -18 -37 -16 -7 3
-13 1 -13 -3 0 -5 6 -12 13 -14 8 -4 6 -6 -4 -6 -14 -1 -16 14 -16 105 0 122
-1 124 -80 124 -41 0 -53 -4 -57 -17z m114 -268 l0 -265 -45 0 -45 0 0 265 0
265 45 0 45 0 0 -265z m291 82 c50 -34 59 -59 59 -175 0 -95 2 -104 20 -109
31 -8 28 -61 -5 -69 -36 -9 -73 3 -80 26 -6 19 -25 28 -25 12 0 -16 -60 -42
-98 -42 -72 0 -119 65 -100 137 13 51 92 93 176 93 40 0 42 21 7 56 -21 21
-31 24 -62 18 -21 -4 -50 -13 -65 -20 -26 -14 -28 -13 -43 17 -9 17 -14 33
-11 36 3 3 29 14 58 24 73 25 127 24 169 -4z m349 -21 c0 -43 -1 -45 -29 -44
-43 1 -79 -26 -86 -65 -4 -18 -5 -75 -3 -125 l3 -92 -46 0 -47 0 0 180 0 180
44 0 c41 0 44 -2 44 -27 l0 -28 23 27 c24 28 39 36 75 37 20 1 22 -4 22 -43z
m-577 -66 c20 -49 18 -76 -7 -90 -16 -8 -23 -19 -21 -31 2 -11 0 -19 -6 -19
-5 0 -9 25 -9 56 0 39 3 53 12 48 7 -5 8 -3 3 7 -5 7 -10 29 -12 48 -4 31 -2
33 13 21 9 -8 21 -26 27 -40z m166 -5 c7 -7 0 -11 -17 -12 -55 -4 -77 -8 -84
-18 -9 -12 -50 -16 -42 -3 3 5 0 16 -8 25 -11 14 -11 16 2 8 22 -13 49 -13 60
0 12 14 75 14 89 0z m-188 -202 c13 -16 12 -17 -3 -4 -10 7 -18 15 -18 17 0 8
8 3 21 -13z"/>
<path d="M2532 2648 c-50 -11 -71 -42 -53 -77 15 -27 71 -29 94 -3 19 20 27
84 12 87 -5 2 -29 -2 -53 -7z m28 -37 c0 -24 -23 -43 -43 -35 -20 7 -15 36 9
45 30 12 34 10 34 -10z"/>
<path d="M2517 2599 c7 -7 15 -10 18 -7 3 3 -2 9 -12 12 -14 6 -15 5 -6 -5z"/>
<path d="M2475 2740 c-3 -6 1 -7 9 -4 18 7 21 14 7 14 -6 0 -13 -4 -16 -10z"/>
<path d="M3156 3029 c4 -8 -21 -31 -27 -25 -2 3 -4 -111 -4 -252 0 -284 -2
-274 65 -285 57 -10 93 37 79 102 -4 19 -3 46 3 60 5 14 8 44 7 66 -2 56 0 67
11 60 6 -4 8 -11 5 -16 -4 -5 -2 -9 2 -9 5 0 17 -16 27 -35 10 -19 23 -32 29
-28 6 4 7 1 3 -6 -5 -7 0 -19 10 -27 11 -9 13 -13 4 -9 -8 4 -6 -1 4 -9 22
-18 30 -46 14 -46 -6 0 -7 8 -3 18 5 13 3 14 -6 5 -15 -15 -2 -35 20 -28 12 4
23 -6 40 -35 30 -54 55 -70 100 -63 20 2 43 7 51 10 8 4 18 6 21 5 4 -1 5 8 2
18 -7 27 6 25 17 -2 6 -16 9 -18 9 -7 1 9 -6 22 -14 29 -13 11 -18 90 -5 90
11 0 29 -62 23 -78 -4 -14 -3 -15 6 -2 8 12 12 10 19 -10 5 -14 8 -28 6 -32
-2 -3 4 -5 13 -3 10 1 28 -3 40 -11 36 -23 123 -28 165 -10 43 19 115 90 121
120 2 12 5 0 6 -26 0 -27 0 -49 -1 -51 -2 -2 5 -12 15 -22 23 -22 92 -24 114
-2 12 11 16 42 18 126 2 66 8 117 15 126 6 7 24 13 40 13 16 -1 36 4 44 11 11
9 20 10 35 1 19 -10 21 -20 22 -103 1 -112 5 -139 24 -153 8 -6 11 -14 7 -18
-4 -4 -2 -6 3 -5 6 2 22 -4 36 -14 45 -30 142 -12 169 31 10 15 11 15 5 -3 -3
-11 -3 -16 1 -12 4 4 14 1 21 -5 27 -22 133 -2 118 23 -4 5 -3 14 0 19 3 6 7
42 9 81 1 39 -1 62 -5 52 -7 -16 -8 -16 -8 3 -1 12 6 38 14 58 13 31 20 36 49
36 19 0 36 -6 38 -12 3 -7 4 -65 2 -127 -2 -98 0 -117 14 -128 23 -17 93 -16
116 2 11 8 17 15 13 15 -4 0 -3 10 4 21 6 12 7 19 2 16 -4 -3 -8 52 -8 121 1
73 -4 133 -10 140 -5 8 -25 29 -43 48 -30 33 -36 35 -90 33 -31 -1 -62 -6 -69
-11 -17 -14 -22 2 -24 80 -1 38 -5 75 -8 80 -3 5 -31 9 -61 8 -69 -1 -78 -17
-76 -132 1 -46 -2 -84 -7 -84 -5 0 -7 7 -3 15 3 8 1 15 -5 15 -6 0 -9 6 -6 13
4 10 -5 13 -34 13 l-39 -1 -6 47 c-8 60 -19 69 -68 58 -56 -12 -73 -33 -75
-94 -1 -11 -4 -16 -8 -13 -3 4 -12 2 -18 -3 -8 -7 -23 -6 -46 4 -22 9 -41 11
-57 5 -13 -5 -28 -6 -34 -3 -7 4 -8 2 -4 -4 4 -7 1 -12 -8 -12 -9 0 -16 4 -16
8 0 4 -20 8 -45 8 -55 1 -59 -6 -64 -101 -2 -31 -4 -36 -10 -20 -5 11 -9 24
-9 29 0 5 -7 13 -16 18 -9 5 -16 14 -16 21 0 8 3 8 9 -2 6 -9 11 -10 15 -2 7
11 4 12 -34 15 -10 0 -27 10 -37 20 -11 11 -12 15 -4 11 36 -20 113 -10 80 11
-8 4 -9 3 -5 -4 8 -13 -6 -17 -18 -5 -14 14 -211 17 -236 3 -10 -5 -21 -6 -25
-2 -5 4 -6 3 -3 -3 3 -5 -4 -19 -15 -30 -11 -12 -17 -14 -13 -5 4 8 0 6 -8 -4
-9 -11 -16 -24 -16 -29 0 -4 -5 -5 -10 -2 -6 4 -10 3 -9 -2 1 -4 -5 -24 -14
-43 l-15 -35 1 37 c1 23 5 34 11 31 6 -3 5 0 -1 8 -9 8 -13 46 -13 110 0 77
-3 101 -16 114 -9 9 -22 14 -30 11 -7 -3 -27 -1 -44 4 -20 6 -28 5 -24 -1 3
-6 -2 -16 -11 -23 -15 -10 -16 -29 -13 -143 2 -104 0 -129 -9 -121 -7 6 -13
15 -13 20 0 5 -7 16 -15 25 -8 8 -13 19 -9 24 3 5 0 8 -7 7 -7 -2 -19 10 -27
25 -7 16 -20 31 -27 33 -8 3 -11 13 -8 21 4 11 2 14 -5 9 -11 -7 -16 7 -13 44
0 9 -2 10 -5 3 -3 -7 -12 -9 -20 -6 -7 3 -12 8 -9 12 7 12 -50 68 -64 63 -8
-3 -11 -1 -8 4 3 5 -14 9 -38 9 -24 0 -41 -3 -39 -6z m1524 -121 l0 -111 23
21 c67 63 172 51 203 -23 10 -24 14 -75 14 -170 l0 -135 -45 0 -45 0 0 126 c0
69 -5 134 -10 145 -16 29 -71 25 -109 -7 l-31 -26 0 -119 0 -119 -45 0 -45 0
0 265 0 265 45 0 45 0 0 -112z m-1305 -85 l120 -176 3 177 2 176 43 0 42 0 0
-255 1 -255 -46 0 -45 1 -125 183 -125 184 -3 -184 -2 -184 -45 0 -45 0 0 255
0 255 53 0 52 -1 120 -176z m1063 82 l-3 -55 48 0 47 0 0 -35 0 -35 -47 0 -48
0 3 -102 c2 -57 8 -109 15 -116 7 -9 23 -12 43 -9 28 5 33 2 39 -21 9 -36 -16
-52 -78 -52 -40 0 -53 5 -78 29 -29 29 -29 30 -29 150 l0 121 -25 0 c-22 0
-25 4 -25 35 0 31 3 35 26 35 23 0 25 3 22 43 -3 39 -1 43 27 54 61 23 67 19
63 -42z m-538 -67 c124 -63 134 -245 18 -331 -32 -24 -114 -33 -160 -18 -94
31 -145 158 -103 258 21 50 42 72 90 94 54 25 102 24 155 -3z m355 -23 c0 -42
-2 -45 -25 -43 -78 5 -99 -34 -94 -179 l3 -103 -44 0 -45 0 0 180 0 180 40 0
c38 0 40 -1 40 -32 l1 -33 15 28 c16 30 44 45 84 46 24 1 26 -2 25 -44z m311
-81 c-3 -26 -6 -78 -6 -117 0 -68 0 -70 -19 -53 -11 10 -28 17 -38 16 -37 -4
-39 0 -39 85 0 47 3 85 6 86 3 0 15 2 28 3 12 2 28 8 34 14 7 7 18 12 26 12
12 0 13 -10 8 -46z"/>
<path d="M4654 2748 l-19 -23 23 19 c21 18 27 26 19 26 -2 0 -12 -10 -23 -22z"/>
<path d="M3777 2779 c-61 -36 -60 -185 1 -218 58 -31 114 2 128 75 19 103 -55
186 -129 143z m85 -36 c15 -19 19 -110 5 -140 -10 -23 -14 -25 -42 -25 -38 0
-44 5 -58 46 -17 50 -13 86 13 114 11 11 17 22 14 24 -2 3 9 3 26 0 16 -2 35
-11 42 -19z"/>
<path d="M2190 2970 c0 -5 5 -10 10 -10 6 0 10 5 10 10 0 6 -4 10 -10 10 -5 0
-10 -4 -10 -10z"/>
<path d="M2362 2935 c0 -16 2 -22 5 -12 2 9 2 23 0 30 -3 6 -5 -1 -5 -18z"/>
<path d="M1984 2860 c0 -13 4 -16 10 -10 7 7 7 13 0 20 -6 6 -10 3 -10 -10z"/>
<path d="M1700 2856 c0 -2 8 -10 18 -17 15 -13 16 -12 3 4 -13 16 -21 21 -21
13z"/>
<path d="M3400 2840 c0 -5 5 -10 11 -10 5 0 7 5 4 10 -3 6 -8 10 -11 10 -2 0
-4 -4 -4 -10z"/>
<path d="M3005 2809 c-4 -6 -5 -12 -2 -15 2 -3 7 2 10 11 7 17 1 20 -8 4z"/>
<path d="M4951 2744 c0 -11 3 -14 6 -6 3 7 2 16 -1 19 -3 4 -6 -2 -5 -13z"/>
<path d="M3300 2691 c0 -6 4 -13 10 -16 6 -3 7 1 4 9 -7 18 -14 21 -14 7z"/>
<path d="M3991 2526 c-9 -11 -9 -16 1 -22 7 -4 10 -4 6 1 -4 4 -3 14 3 22 6 7
9 13 6 13 -2 0 -10 -6 -16 -14z"/>
<path d="M2960 2316 c0 -2 7 -7 16 -10 8 -3 12 -2 9 4 -6 10 -25 14 -25 6z"/>
<path d="M3466 2294 c-5 -14 -4 -15 9 -4 17 14 19 20 6 20 -5 0 -12 -7 -15
-16z"/>
<path d="M3353 2293 c7 -11 -14 -23 -41 -23 -8 0 -26 -9 -38 -21 -12 -11 -30
-21 -41 -21 -11 -1 -19 -9 -19 -21 0 -17 1 -17 13 -1 16 21 17 10 2 -17 -6
-11 -15 -17 -22 -12 -7 4 -7 0 2 -10 7 -9 11 -24 7 -32 -4 -11 -2 -14 6 -9 7
5 9 0 6 -14 -4 -12 -3 -20 0 -18 11 6 62 -51 54 -59 -4 -5 -2 -5 5 -2 6 4 23
3 37 -3 15 -5 26 -6 26 -1 0 5 15 15 34 21 19 6 37 19 41 28 12 28 14 63 4 56
-5 -3 -7 -10 -4 -15 4 -5 1 -9 -4 -9 -17 0 -13 28 5 38 14 8 14 10 -1 22 -13
11 -15 10 -10 -2 9 -22 -19 -39 -67 -43 -28 -3 -37 -1 -27 6 12 7 11 9 -3 9
-20 0 -24 25 -6 36 21 13 65 11 65 -2 0 -7 -5 -10 -11 -7 -6 4 -5 0 1 -9 7 -8
9 -19 5 -23 -4 -5 -1 -5 6 -1 7 4 10 12 7 17 -4 5 -1 9 5 9 6 0 9 4 5 9 -3 5
3 12 14 16 30 9 9 68 -29 80 -11 4 -18 10 -15 15 3 5 0 12 -6 16 -7 4 -9 3 -6
-3z m38 -62 c21 -17 22 -20 7 -26 -9 -4 -25 -2 -37 4 -29 16 -69 -2 -77 -34
-14 -56 37 -101 85 -75 21 11 41 6 41 -9 0 -12 -48 -31 -81 -31 -34 0 -75 35
-84 73 -8 32 19 91 48 105 34 17 73 14 98 -7z"/>
<path d="M2156 2279 c3 -5 -1 -9 -8 -9 -8 0 -20 -9 -28 -19 -7 -11 -17 -18
-22 -15 -4 3 -8 -5 -9 -18 0 -13 -2 -36 -3 -51 -1 -16 3 -31 8 -34 5 -3 6 -1
2 5 -4 7 -2 12 3 12 6 0 11 -7 11 -15 0 -8 -6 -15 -13 -15 -17 0 -15 -39 2
-50 8 -4 11 -12 8 -17 -3 -5 18 -10 46 -11 37 -1 61 4 85 18 28 17 32 25 32
60 0 29 -3 39 -12 34 -8 -5 -9 -2 -5 9 4 12 1 17 -11 17 -15 1 -15 2 -1 13 29
23 29 44 1 58 -46 22 -92 37 -86 28z m69 -42 c28 -21 11 -38 -26 -25 -25 9
-34 8 -47 -5 -14 -15 -12 -18 24 -32 60 -24 69 -30 72 -53 5 -30 -32 -62 -70
-62 -45 1 -80 21 -68 39 7 12 13 12 39 1 17 -7 37 -10 46 -6 25 9 17 35 -12
42 -46 11 -73 33 -73 59 0 45 73 72 115 42z"/>
<path d="M2591 2278 c-1 -9 -7 -21 -13 -25 -16 -10 -18 -193 -3 -193 5 0 4 -4
-4 -9 -9 -6 -2 -10 22 -13 20 -2 34 -1 31 3 -2 4 3 10 12 13 9 4 14 13 10 21
-4 12 -2 13 13 6 10 -6 23 -17 31 -25 15 -19 46 -21 64 -3 11 10 11 16 -5 39
-18 25 -18 27 -2 43 22 23 18 80 -7 105 -25 25 -94 42 -109 27 -8 -8 -11 -7
-11 2 0 7 -4 10 -9 7 -5 -4 -12 0 -14 6 -3 8 -6 7 -6 -4z m112 -39 c43 -23 51
-68 15 -93 l-21 -15 27 -36 27 -35 -23 0 c-15 0 -31 12 -46 36 -29 45 -58 43
-54 -4 2 -26 -2 -32 -18 -32 -19 0 -20 7 -20 95 l0 95 46 0 c25 0 55 -5 67
-11z"/>
<path d="M2623 2204 c-2 -7 -3 -21 -1 -31 3 -14 11 -17 38 -14 62 6 66 42 6
52 -26 4 -39 2 -43 -7z"/>
<path d="M2350 2262 c-23 -16 -25 -23 -25 -108 0 -92 13 -126 43 -116 6 2 12
-5 13 -15 0 -14 2 -15 7 -3 5 10 23 16 52 17 60 3 87 35 55 67 -16 15 -10 46
8 46 6 0 1 7 -11 16 l-23 16 21 15 c14 10 20 23 18 41 -3 25 -7 27 -60 32 -36
3 -58 1 -58 -5 0 -5 -4 -5 -8 2 -6 9 -14 8 -32 -5z m140 -32 c0 -18 -7 -20
-55 -20 -48 0 -55 -2 -55 -20 0 -17 7 -20 44 -20 30 0 46 -5 50 -15 4 -12 -4
-15 -44 -15 -47 0 -50 -2 -50 -26 0 -25 2 -26 55 -22 47 3 55 0 55 -14 0 -15
-10 -18 -70 -18 l-70 0 0 95 0 95 70 0 c63 0 70 -2 70 -20z"/>
<path d="M2835 2270 c3 -4 -5 -10 -16 -13 -16 -4 -20 -10 -14 -24 4 -10 9 -29
11 -43 1 -13 8 -26 13 -28 6 -2 11 -8 11 -13 0 -13 59 -139 65 -139 3 0 0 10
-6 23 -11 19 -11 21 3 9 12 -9 18 -10 23 -2 4 6 14 9 22 6 8 -3 11 -1 8 4 -5
9 20 66 35 80 6 5 31 81 36 108 1 7 -3 11 -9 9 -6 -2 -27 -45 -46 -95 -25 -63
-41 -92 -52 -92 -11 0 -28 25 -48 70 -17 39 -31 74 -31 79 0 5 -7 17 -17 26
-15 15 -14 16 12 13 24 -3 31 -12 55 -73 24 -61 28 -66 35 -45 21 71 48 120
66 120 24 0 25 17 2 22 -18 4 -73 -54 -73 -75 0 -6 -12 8 -27 30 -15 23 -35
44 -45 46 -10 3 -16 2 -13 -3z"/>
<path d="M3110 2267 c-24 -12 -25 -18 -30 -110 -5 -95 -4 -98 18 -104 12 -3
22 -12 22 -21 0 -10 9 -4 23 16 13 17 26 30 28 27 3 -2 1 33 -2 78 -4 45 -5
85 -3 89 2 3 -5 9 -16 13 -11 4 -18 11 -15 16 8 12 5 11 -25 -4z m30 -112 c0
-88 -1 -95 -20 -95 -19 0 -20 7 -20 95 0 88 1 95 20 95 19 0 20 -7 20 -95z"/>
<path d="M3560 2273 c-25 -3 -52 -11 -61 -19 -14 -12 -18 -13 -23 -2 -3 7 -3
2 1 -12 7 -27 11 -76 12 -131 1 -59 20 -74 89 -73 35 1 69 8 81 16 18 13 19
17 6 34 -14 18 -14 18 -15 -3 0 -22 -4 -23 -70 -23 l-70 0 0 95 0 95 70 0 c64
0 70 -2 70 -21 0 -19 -5 -21 -50 -17 -46 3 -50 1 -50 -19 0 -20 5 -23 45 -23
35 0 43 -3 39 -15 -4 -10 -20 -15 -45 -15 -35 0 -39 -3 -39 -25 0 -23 4 -25
43 -25 23 0 51 7 61 15 20 15 20 15 0 15 -11 0 -15 3 -8 8 17 11 28 53 14 50
-7 -2 -15 3 -18 11 -3 10 0 12 12 8 11 -4 15 -3 10 4 -4 6 0 15 7 20 11 7 11
9 1 9 -7 0 -11 4 -8 9 10 15 -22 33 -45 26 -14 -5 -19 -4 -15 4 4 6 6 10 4 9
-2 -1 -23 -3 -48 -5z"/>
<path d="M3776 2268 c3 -4 -2 -8 -10 -8 -8 0 -21 -9 -29 -20 -8 -11 -17 -17
-22 -12 -4 4 -5 -2 -1 -12 4 -11 0 -29 -10 -45 l-17 -26 23 20 c21 18 23 18
17 2 -4 -10 -3 -16 1 -14 4 3 13 -1 20 -9 7 -8 9 -14 5 -14 -5 0 -14 -9 -21
-20 -17 -27 -1 -57 35 -64 50 -11 93 -15 89 -7 -3 3 11 17 30 30 19 14 31 27
27 30 -4 3 -9 15 -11 26 -2 11 -10 30 -18 43 -13 20 -13 24 1 38 20 21 19 26
-7 44 -25 16 -110 31 -102 18z m95 -35 c4 -4 5 -14 0 -21 -6 -10 -13 -11 -34
-1 -14 6 -33 9 -41 6 -28 -11 -17 -34 23 -45 46 -14 64 -33 59 -64 -5 -35 -48
-54 -95 -43 -40 10 -56 43 -18 37 87 -15 112 11 37 38 -65 24 -78 54 -41 91
17 17 29 20 61 16 22 -3 44 -9 49 -14z"/>
<path d="M4130 2230 c0 -5 5 -10 11 -10 5 0 7 5 4 10 -3 6 -8 10 -11 10 -2 0
-4 -4 -4 -10z"/>
<path d="M1871 2210 c-1 -16 -17 -17 -281 -18 -180 0 -185 -1 -211 -11 -16 -7
63 -10 254 -10 177 -1 277 -5 277 -11 0 -6 -98 -10 -274 -10 -151 0 -277 -3
-279 -7 -3 -5 35 -8 83 -8 48 0 87 -2 85 -5 -2 -3 83 -4 188 -3 166 2 193 4
204 18 14 20 -3 56 -23 48 -7 -2 -14 4 -17 14 -3 12 -5 13 -6 3z m-404 -26
c-3 -3 -12 -4 -19 -1 -8 3 -5 6 6 6 11 1 17 -2 13 -5z"/>
<path d="M4114 2207 c4 -12 2 -17 -6 -15 -20 7 -41 -20 -32 -40 4 -9 7 -19 6
-22 -1 -6 375 -2 477 5 144 10 81 15 -192 15 -215 0 -277 3 -277 13 0 9 62 12
277 11 168 -1 252 2 213 6 -36 4 -121 9 -190 10 -69 1 -151 5 -182 9 -31 4
-54 3 -52 -1 10 -17 -26 -7 -36 10 -11 16 -11 16 -6 -1z"/>
<path d="M3329 2163 c-13 -16 -12 -17 4 -4 16 13 21 21 13 21 -2 0 -10 -8 -17
-17z"/>
<path d="M2546 2147 c3 -10 9 -15 12 -12 3 3 0 11 -7 18 -10 9 -11 8 -5 -6z"/>
<path d="M4108 2098 c5 -5 16 -8 23 -6 8 3 3 7 -10 11 -17 4 -21 3 -13 -5z"/>
<path d="M3498 2023 c7 -3 16 -2 19 1 4 3 -2 6 -13 5 -11 0 -14 -3 -6 -6z"/>
</g>
</svg>
